<svg id="0929a3fa-f270-4bc4-b100-eea624d8b4ee" data-name="Layer 1" xmlns="http://www.w3.org/2000/svg" viewBox="0 0 123.87 154.87">
  <title>grey-logo</title>
  <g>
    <polygon points="41.34 59.59 48.2 47.71 55.06 59.59 41.34 59.59" style="fill: #767676"/>
    <polygon points="48.21 119.12 68.88 83.31 89.55 119.12 48.21 119.12" style="fill: #404040"/>
    <polygon points="13.95 35.75 34.51 0.15 55.06 35.75 13.95 35.75" style="fill: #767676"/>
    <polygon points="55.09 131.03 61.94 119.15 68.81 131.03 55.09 131.03" style="fill: #58595b"/>
    <polygon points="55.09 154.87 61.94 142.99 68.81 154.87 55.09 154.87" style="fill: #3b3b3b"/>
    <polygon points="41.35 131.03 48.21 119.15 55.07 131.03 41.35 131.03" style="fill: #6d6e71"/>
    <polygon points="34.47 119.12 41.33 107.23 48.19 119.12 34.47 119.12"/>
    <polygon points="61.95 119.15 55.09 131.03 48.23 119.15 61.95 119.15" style="fill: #767676"/>
    <polygon points="55.09 107.23 48.23 119.12 41.36 107.23 55.09 107.23" style="fill: #767676"/>
    <polygon points="41.33 107.15 48.19 95.27 55.05 107.15 41.33 107.15" style="fill: #404040"/>
    <polygon points="48.21 95.27 55.07 83.39 61.93 95.27 48.21 95.27" style="fill: #c4c4c4"/>
    <polygon points="48.19 119.15 41.33 131.03 34.47 119.15 48.19 119.15" style="fill: #c4c4c4"/>
    <polygon points="75.67 119.15 68.81 131.03 61.95 119.15 75.67 119.15" style="fill: #878787"/>
    <polygon points="61.95 142.99 55.09 154.87 48.23 142.99 61.95 142.99" style="fill: #c4c4c4"/>
    <polygon points="27.67 59.44 13.83 83.4 0 59.44 27.67 59.44" style="fill: #404040"/>
    <polygon points="48.2 47.63 55.06 35.75 61.92 47.63 48.2 47.63" style="fill: #767676"/>
    <polygon points="0.08 59.44 13.79 35.69 27.5 59.44 0.08 59.44" style="fill: #767676"/>
    <polygon points="55.06 35.75 34.5 71.37 13.93 35.75 55.06 35.75" style="fill: #c4c4c4"/>
    <polygon points="89.46 0 62.01 47.56 34.55 0 89.46 0" style="fill: #404040"/>
    <polygon points="55.05 59.6 89.46 0 123.87 59.6 55.05 59.6"/>
    <polygon points="82.58 83.44 96.37 59.55 110.16 83.44 82.58 83.44" style="fill: #404040"/>
    <polygon points="13.79 83.31 55.13 83.36 34.42 119.14 13.79 83.31" style="fill: #3b3b3b"/>
    <polygon points="68.87 131.03 75.73 119.15 82.59 131.03 68.87 131.03" style="fill: #58595b"/>
    <polygon points="27.56 83.4 41.3 59.59 55.05 83.4 27.56 83.4" style="fill: #767676"/>
    <polygon points="89.54 119.15 82.68 131.03 75.82 119.15 89.54 119.15"/>
    <polygon points="75.67 142.99 68.81 154.87 61.95 142.99 75.67 142.99"/>
    <polygon points="61.94 95.27 55.09 107.15 48.23 95.27 61.94 95.27" style="fill: #767676"/>
    <polygon points="13.83 83.28 20.69 71.4 27.55 83.28 13.83 83.28" style="fill: #767676"/>
    <polygon points="34.45 71.4 27.59 83.28 20.73 71.4 34.45 71.4" style="fill: #404040"/>
    <polygon points="20.69 71.32 27.55 59.44 34.41 71.32 20.69 71.32" style="fill: #767676"/>
    <polygon points="68.85 83.42 75.71 71.54 82.57 83.42 68.85 83.42" style="fill: #878787"/>
    <polygon points="75.7 71.5 82.56 59.62 89.42 71.5 75.7 71.5" style="fill: #878787"/>
    <polygon points="96.34 59.59 89.48 71.47 82.62 59.59 96.34 59.59"/>
    <polygon points="110.11 83.43 89.43 119.26 68.75 83.43 110.11 83.43"/>
    <polygon points="123.86 59.6 110.11 83.42 96.35 59.6 123.86 59.6"/>
  </g>
</svg>
