<?xml version="1.0" encoding="utf-8"?>
<!-- Generator: Adobe Illustrator 16.0.4, SVG Export Plug-In . SVG Version: 6.00 Build 0)  -->
<!DOCTYPE svg PUBLIC "-//W3C//DTD SVG 1.1//EN" "http://www.w3.org/Graphics/SVG/1.1/DTD/svg11.dtd">
<svg version="1.1" id="Layer_1" xmlns="http://www.w3.org/2000/svg" xmlns:xlink="http://www.w3.org/1999/xlink" x="0px" y="0px"
	 viewBox="0 0 447 710.327" enable-background="new 0 0 447 710.327" xml:space="preserve">
<g>
	<defs>
		<rect id="SVGID_1_" x="-1.489" width="448.489" height="709.659"/>
	</defs>
	<clipPath id="SVGID_2_">
		<use xlink:href="#SVGID_1_"  overflow="visible"/>
	</clipPath>
	<g clip-path="url(#SVGID_2_)">
		<defs>
			<rect id="SVGID_3_" x="-9.811" y="-75.663" width="551.052" height="786.08"/>
		</defs>
		<clipPath id="SVGID_4_">
			<use xlink:href="#SVGID_3_"  overflow="visible"/>
		</clipPath>
		<g clip-path="url(#SVGID_4_)">
			<polygon fill="#E59E3B" points="110.033,258.075 72.884,322.432 35.723,258.075 			"/>
			<polygon fill="#E59E3B" points="259.084,387.205 221.935,451.563 184.776,387.205 			"/>
			<polygon fill="#F4D1A6" points="221.866,322.375 110.069,516.037 -1.759,322.375 			"/>
			<polygon fill="#058293" points="-1.431,322.729 35.723,258.371 72.873,322.729 			"/>
			<polygon fill="#AE3462" points="35.766,645.112 147.715,451.195 259.676,645.112 			"/>
			<polygon fill="#058293" points="-149.769,193.626 -38.453,0.811 72.873,193.626 			"/>
			<polygon fill="#861A44" points="73.005,709.659 110.149,645.304 147.309,709.659 			"/>
			<polygon fill="#006374" points="-1.383,709.659 35.766,645.304 72.926,709.659 			"/>
			<polygon fill="#00313C" points="-38.644,645.112 -1.489,580.754 35.666,645.112 			"/>
			<polygon fill="#00313C" points="110.155,645.304 73.011,709.659 35.845,645.304 			"/>
			<polygon fill="#058293" points="73.005,580.754 35.855,645.112 -1.31,580.754 			"/>
			<polygon fill="#058293" points="-1.489,580.328 35.66,515.974 72.815,580.328 			"/>
			<polygon fill="#62BDBF" points="35.766,515.974 72.92,451.619 110.075,515.974 			"/>
			<polygon fill="#62BDBF" points="35.666,645.304 -1.489,709.659 -38.644,645.304 			"/>
			<polygon fill="#D36E97" points="184.469,645.304 147.314,709.659 110.155,645.304 			"/>
			<polygon fill="#00313C" points="-75.497,321.914 -150.409,451.678 -225.332,321.914 			"/>
			<polygon fill="#058293" points="35.734,257.98 72.884,193.626 110.043,257.98 			"/>
			<polygon fill="#006374" points="-224.882,321.908 -150.647,193.312 -76.402,321.908 			"/>
			<polygon fill="#62BDBF" points="72.873,193.626 -38.486,386.54 -149.874,193.626 			"/>
			<polygon fill="#861A44" points="259.173,0 110.498,257.559 -38.221,0 			"/>
			<polygon fill="#451125" points="72.83,322.781 259.164,0 445.518,322.781 			"/>
			<polygon fill="#AE3462" points="221.918,451.875 296.593,322.533 371.272,451.875 			"/>
			<polygon fill="#006374" points="-150.641,451.211 73.264,451.461 -38.909,645.258 			"/>
			<polygon fill="#861A44" points="147.652,709.659 184.802,645.304 221.961,709.659 			"/>
			<polygon fill="#058293" points="-76.09,451.678 -1.647,322.729 72.805,451.678 			"/>
			<polygon fill="#451125" points="259.603,645.304 222.454,709.659 185.299,645.304 			"/>
			<polygon fill="#00313C" points="110.149,515.974 73.005,580.328 35.845,515.974 			"/>
			<polygon fill="#058293" points="-150.414,451.047 -113.265,386.693 -76.105,451.047 			"/>
			<polygon fill="#00313C" points="-38.771,386.693 -75.92,451.047 -113.074,386.693 			"/>
			<polygon fill="#058293" points="-113.265,386.27 -76.11,321.914 -38.956,386.27 			"/>
			<polygon fill="#D36E97" points="147.558,451.799 184.706,387.438 221.866,451.799 			"/>
			<polygon fill="#D36E97" points="184.659,387.257 221.809,322.896 258.968,387.257 			"/>
			<polygon fill="#451125" points="296.44,322.713 259.286,387.068 222.125,322.713 			"/>
			<polygon fill="#451125" points="371.009,451.863 259.011,645.876 146.992,451.863 			"/>
			<polygon fill="#451125" points="445.477,322.781 370.992,451.81 296.498,322.781 			"/>
		</g>
	</g>
</g>
</svg>
