<svg id="Layer_1" data-name="Layer 1" xmlns="http://www.w3.org/2000/svg" xmlns:xlink="http://www.w3.org/1999/xlink" viewBox="0 0 451 710.33">
  <defs>
    <clipPath id="clip-path">
      <rect width="451" height="707.08" style="fill: none"/>
    </clipPath>
  </defs>
  <title>sidebar-graphic</title>
  <g style="clip-path: url(#clip-path)">
    <g>
      <polygon points="110.03 258.07 35.72 258.07 72.85 322.38 72.92 322.38 110.03 258.07" style="fill: #e59e3b"/>
      <polygon points="184.81 387.26 221.94 451.56 259.08 387.2 258.94 387.2 258.97 387.26 184.81 387.26" style="fill: #e59e3b"/>
      <polygon points="73.06 322.38 72.92 322.38 72.85 322.38 72.67 322.38 72.87 322.72 73.06 322.38" style="fill: #f4d1a6"/>
      <polygon points="147.12 451.86 221.63 322.78 72.83 322.78 72.86 322.73 -1.43 322.73 -1.23 322.38 -1.45 322.38 -1.6 322.64 72.78 451.46 73.26 451.46 73.05 451.84 110.08 515.97 110.11 515.97 147.05 451.97 146.99 451.86 147.12 451.86" style="fill: #f4d1a6"/>
      <polygon points="72.86 322.73 72.87 322.72 72.67 322.38 35.72 258.37 -1.23 322.38 -1.43 322.73 72.86 322.73" style="fill: #058293"/>
      <polygon points="147.56 451.8 147.81 451.36 147.72 451.19 147.33 451.86 148.1 451.86 148.06 451.8 147.56 451.8" style="fill: #ae3462"/>
      <polygon points="72.92 580.75 73 580.75 35.86 645.11 258.57 645.11 147.16 452.16 72.92 580.75" style="fill: #ae3462"/>
      <polygon points="259.68 645.11 259.56 644.92 259.45 645.11 259.68 645.11" style="fill: #ae3462"/>
      <polygon points="35.77 645.11 35.86 645.11 35.81 645.03 35.77 645.11" style="fill: #ae3462"/>
      <polygon points="-9.81 50.42 -9.81 193.63 72.87 193.63 -9.81 50.42" style="fill: #058293"/>
      <polygon points="147.31 709.66 110.15 645.31 73.01 709.66 147.31 709.66" style="fill: #861a44"/>
      <polygon points="73 709.66 73.01 709.66 73.01 709.65 73 709.66" style="fill: #861a44"/>
      <polygon points="-1.38 709.66 72.93 709.66 35.77 645.3 -1.38 709.66" style="fill: #006374"/>
      <polygon points="-1.49 580.75 -9.81 595.17 -9.81 645.11 35.67 645.11 -1.49 580.75" style="fill: #00313c"/>
      <polygon points="35.84 645.3 73.01 709.65 73.01 709.66 110.15 645.31 110.16 645.3 35.84 645.3" style="fill: #00313c"/>
      <polygon points="72.92 580.75 -1.31 580.75 35.81 645.03 35.86 645.11 73 580.75 72.92 580.75" style="fill: #058293"/>
      <polygon points="72.81 580.33 35.79 516.2 -1.33 580.33 72.81 580.33" style="fill: #058293"/>
      <polygon points="35.92 515.97 110.08 515.97 73.05 451.84 35.92 515.97" style="fill: #62bdbf"/>
      <polygon points="-1.49 709.66 35.67 645.3 -9.81 645.3 -9.81 695.25 -1.49 709.66" style="fill: #62bdbf"/>
      <polygon points="147.31 709.66 184.47 645.3 110.16 645.3 147.31 709.66" style="fill: #d36e97"/>
      <polygon points="72.88 193.63 35.73 257.98 110.04 257.98 72.88 193.63" style="fill: #058293"/>
      <polygon points="72.87 193.63 -9.81 193.63 -9.81 336.86 -1.6 322.64 -1.45 322.38 72.87 193.63" style="fill: #62bdbf"/>
      <polygon points="-9.81 0 -9.81 49.2 110.49 257.54 259.16 0 -9.81 0" style="fill: #861a44"/>
      <polygon points="259.17 0 259.16 0 259.17 0.01 259.17 0" style="fill: #861a44"/>
      <polygon points="259.16 0 110.49 257.54 73.06 322.38 72.87 322.72 72.86 322.73 72.83 322.78 221.63 322.78 222.16 322.78 222.13 322.71 296.44 322.71 296.4 322.78 296.45 322.78 296.59 322.53 296.74 322.78 445.48 322.78 445.52 322.78 259.17 0.01 259.16 0" style="fill: #451125"/>
      <polygon points="296.5 322.78 296.74 322.78 296.59 322.53 296.45 322.78 221.93 451.86 371.01 451.86 371 451.88 371.27 451.88 371.11 451.6 370.99 451.81 296.5 322.78" style="fill: #ae3462"/>
      <polygon points="35.92 515.97 73.05 451.84 73.26 451.46 72.78 451.46 72.68 451.46 72.81 451.68 -9.81 451.68 -9.81 594.99 -1.33 580.33 35.79 516.2 35.88 516.04 35.84 515.97 35.92 515.97" style="fill: #006374"/>
      <polygon points="184.8 645.3 147.65 709.66 221.96 709.66 184.8 645.3" style="fill: #861a44"/>
      <polygon points="72.68 451.46 -1.65 322.73 -9.81 336.87 -9.81 451.68 72.81 451.68 72.68 451.46" style="fill: #058293"/>
      <polygon points="258.68 645.3 185.3 645.3 222.45 709.66 259.6 645.3 259.34 645.3 259.01 645.88 258.68 645.3" style="fill: #451125"/>
      <polygon points="35.92 515.97 35.84 515.97 35.88 516.04 73 580.33 110.15 515.97 110.11 515.97 110.08 515.97 35.92 515.97" style="fill: #00313c"/>
      <polygon points="148.06 451.8 221.87 451.8 184.71 387.44 147.81 451.36 147.56 451.8 148.06 451.8" style="fill: #d36e97"/>
      <polygon points="258.97 387.26 258.94 387.2 221.81 322.9 184.66 387.26 184.81 387.26 258.97 387.26" style="fill: #d36e97"/>
      <polygon points="296.4 322.78 296.44 322.71 222.13 322.71 222.16 322.78 259.29 387.07 296.4 322.78" style="fill: #451125"/>
      <polygon points="221.93 451.86 148.1 451.86 147.33 451.86 147.12 451.86 146.99 451.86 147.05 451.97 147.16 452.16 258.57 645.11 258.68 645.3 259.01 645.88 259.34 645.3 259.45 645.11 259.56 644.92 371 451.88 371.01 451.86 221.93 451.86" style="fill: #451125"/>
      <polygon points="296.5 322.78 370.99 451.81 371.11 451.6 445.48 322.78 296.74 322.78 296.5 322.78" style="fill: #451125"/>
    </g>
  </g>
</svg>
