<?xml version="1.0" encoding="utf-8"?>
<!-- Generator: Adobe Illustrator 16.0.4, SVG Export Plug-In . SVG Version: 6.00 Build 0)  -->
<!DOCTYPE svg PUBLIC "-//W3C//DTD SVG 1.1//EN" "http://www.w3.org/Graphics/SVG/1.1/DTD/svg11.dtd">
<svg version="1.1" id="Layer_1" xmlns="http://www.w3.org/2000/svg" xmlns:xlink="http://www.w3.org/1999/xlink" x="0px" y="0px"
	 viewBox="0 0 66.277 82.841" enable-background="new 0 0 66.277 82.841">
<g>
	<polygon fill="#00313C" points="22.091,31.825 25.765,25.464 29.437,31.825 	"/>
	<polygon fill="#00313C" points="25.769,63.697 36.836,44.526 47.906,63.697 	"/>
	<polygon fill="#00313C" points="7.426,19.062 18.431,0 29.437,19.062 	"/>
	<polygon fill="#00313C" points="29.45,70.079 33.123,63.716 36.796,70.079 	"/>
	<polygon fill="#00313C" points="29.45,82.841 33.123,76.479 36.796,82.841 	"/>
	<polygon fill="#00313C" points="22.096,70.079 25.769,63.716 29.442,70.079 	"/>
	<polygon fill="#00313C" points="18.413,63.697 22.085,57.335 25.759,63.697 	"/>
	<polygon fill="#00313C" points="33.123,63.716 29.451,70.079 25.776,63.716 	"/>
	<polygon fill="#00313C" points="29.45,57.335 25.778,63.697 22.104,57.335 	"/>
	<polygon fill="#006374" points="22.085,57.293 25.758,50.931 29.432,57.293 	"/>
	<polygon fill="#00313C" points="25.769,50.931 29.442,44.568 33.115,50.931 	"/>
	<polygon fill="#00313C" points="25.759,63.716 22.085,70.079 18.413,63.716 	"/>
	<polygon fill="#00313C" points="40.469,63.716 36.796,70.079 33.123,63.716 	"/>
	<polygon fill="#00313C" points="33.123,76.479 29.45,82.841 25.776,76.479 	"/>
	<polygon fill="#00313C" points="14.769,31.745 7.363,44.574 -0.044,31.745 	"/>
	<polygon fill="#006374" points="25.766,25.425 29.438,19.062 33.112,25.425 	"/>
	<polygon fill="#00313C" points="0,31.745 7.339,19.031 14.679,31.745 	"/>
	<polygon fill="#00313C" points="29.437,19.062 18.428,38.134 7.416,19.062 	"/>
	<polygon fill="#00313C" points="47.855,-0.08 33.157,25.383 18.454,-0.08 	"/>
	<polygon fill="#00313C" points="29.433,31.831 47.855,-0.08 66.277,31.831 	"/>
	<polygon fill="#00313C" points="44.172,44.593 51.554,31.807 58.937,44.593 	"/>
	<polygon fill="#00313C" points="7.34,44.528 29.476,44.553 18.386,63.712 	"/>
	<polygon fill="#00313C" points="36.83,70.079 40.503,63.716 44.177,70.079 	"/>
	<polygon fill="#006374" points="14.71,44.574 22.07,31.825 29.431,44.574 	"/>
	<polygon fill="#00313C" points="47.898,63.716 44.224,70.079 40.552,63.716 	"/>
	<polygon fill="#00313C" points="40.469,76.479 36.796,82.841 33.123,76.479 	"/>
	<polygon fill="#00313C" points="33.123,50.931 29.45,57.293 25.776,50.931 	"/>
	<polygon fill="#00313C" points="7.363,44.512 11.035,38.149 14.709,44.512 	"/>
	<polygon fill="#00313C" points="18.4,38.149 14.727,44.512 11.054,38.149 	"/>
	<polygon fill="#00313C" points="11.035,38.107 14.708,31.745 18.382,38.107 	"/>
	<polygon fill="#00313C" points="36.821,44.586 40.494,38.223 44.167,44.586 	"/>
	<polygon fill="#00313C" points="40.489,38.205 44.162,31.843 47.835,38.205 	"/>
	<polygon fill="#00313C" points="51.54,31.824 47.866,38.187 44.193,31.824 	"/>
	<polygon fill="#00313C" points="58.912,44.592 47.839,63.772 36.764,44.592 	"/>
	<polygon fill="#00313C" points="66.273,31.831 58.91,44.587 51.545,31.831 	"/>
</g>
</svg>
