<?xml version="1.0" encoding="utf-8"?>
<!-- Generator: Adobe Illustrator 16.0.4, SVG Export Plug-In . SVG Version: 6.00 Build 0)  -->
<!DOCTYPE svg PUBLIC "-//W3C//DTD SVG 1.1//EN" "http://www.w3.org/Graphics/SVG/1.1/DTD/svg11.dtd">
<svg version="1.1" id="Layer_1" xmlns="http://www.w3.org/2000/svg" xmlns:xlink="http://www.w3.org/1999/xlink" x="0px" y="0px"
	 width="194.252px" height="242.87px" viewBox="242.149 122.699 194.252 242.87"
	 enable-background="new 242.149 122.699 194.252 242.87" xml:space="preserve">
<g>
	<polygon fill="#E59E3B" points="339.258,197.429 328.501,216.063 317.741,197.429 	"/>
	<polygon fill="#E59E3B" points="382.418,234.819 371.66,253.454 360.9,234.819 	"/>
	<polygon fill="#E59E3B" points="371.641,216.047 339.269,272.124 306.889,216.047 	"/>
	<polygon fill="#058293" points="306.982,216.149 317.741,197.515 328.498,216.149 	"/>
	<polygon fill="#AE3462" points="317.753,309.499 350.17,253.349 382.589,309.499 	"/>
	<polygon fill="#058293" points="264.029,178.766 296.262,122.934 328.498,178.766 	"/>
	<polygon fill="#861A44" points="328.536,328.189 339.292,309.555 350.052,328.189 	"/>
	<polygon fill="#006374" points="328.536,365.569 339.292,346.935 350.052,365.569 	"/>
	<polygon fill="#006374" points="306.996,328.189 317.753,309.555 328.514,328.189 	"/>
	<polygon fill="#00313C" points="296.207,309.499 306.966,290.863 317.725,309.499 	"/>
	<polygon fill="#00313C" points="339.293,309.555 328.538,328.189 317.775,309.555 	"/>
	<polygon fill="#058293" points="328.536,290.863 317.779,309.499 307.018,290.863 	"/>
	<polygon fill="#058293" points="306.966,290.74 317.723,272.105 328.48,290.74 	"/>
	<polygon fill="#62BDBF" points="317.753,272.105 328.512,253.471 339.271,272.105 	"/>
	<polygon fill="#62BDBF" points="317.725,309.555 306.966,328.189 296.207,309.555 	"/>
	<polygon fill="#D36E97" points="360.812,309.555 350.053,328.189 339.293,309.555 	"/>
	<polygon fill="#62BDBF" points="339.293,346.935 328.536,365.569 317.775,346.935 	"/>
	<polygon fill="#00313C" points="285.536,215.913 263.844,253.487 242.149,215.913 	"/>
	<polygon fill="#058293" points="317.744,197.401 328.501,178.766 339.261,197.401 	"/>
	<polygon fill="#006374" points="242.279,215.912 263.775,178.676 285.273,215.912 	"/>
	<polygon fill="#62BDBF" points="328.498,178.766 296.253,234.626 263.999,178.766 	"/>
	<polygon fill="#861A44" points="382.443,122.699 339.393,197.278 296.33,122.699 	"/>
	<polygon fill="#451125" points="328.484,216.164 382.44,122.699 436.401,216.164 	"/>
	<polygon fill="#AE3462" points="371.656,253.544 393.279,216.093 414.903,253.544 	"/>
	<polygon fill="#006374" points="263.776,253.353 328.611,253.425 296.131,309.541 	"/>
	<polygon fill="#861A44" points="350.151,328.189 360.908,309.555 371.668,328.189 	"/>
	<polygon fill="#058293" points="285.363,253.487 306.92,216.149 328.479,253.487 	"/>
	<polygon fill="#451125" points="382.567,309.555 371.811,328.189 361.053,309.555 	"/>
	<polygon fill="#451125" points="360.812,346.935 350.053,365.569 339.293,346.935 	"/>
	<polygon fill="#00313C" points="339.292,272.105 328.536,290.74 317.775,272.105 	"/>
	<polygon fill="#058293" points="263.843,253.306 274.6,234.671 285.359,253.306 	"/>
	<polygon fill="#00313C" points="296.17,234.671 285.413,253.306 274.654,234.671 	"/>
	<polygon fill="#058293" points="274.6,234.548 285.357,215.913 296.117,234.548 	"/>
	<polygon fill="#D36E97" points="350.124,253.522 360.881,234.887 371.641,253.522 	"/>
	<polygon fill="#D36E97" points="360.867,234.834 371.624,216.198 382.384,234.834 	"/>
	<polygon fill="#451125" points="393.234,216.145 382.476,234.779 371.716,216.145 	"/>
	<polygon fill="#451125" points="414.826,253.541 382.396,309.72 349.96,253.541 	"/>
	<polygon fill="#451125" points="436.39,216.164 414.822,253.526 393.251,216.164 	"/>
</g>
</svg>
